<?xml version="1.0" encoding="UTF-8" standalone="no"?>
<svg
   xmlns:dc="http://purl.org/dc/elements/1.1/"
   xmlns:cc="http://creativecommons.org/ns#"
   xmlns:rdf="http://www.w3.org/1999/02/22-rdf-syntax-ns#"
   xmlns:svg="http://www.w3.org/2000/svg"
   xmlns="http://www.w3.org/2000/svg"
   viewBox="0 0 3200 2266.6667"
   height="2266.6667"
   width="3200"
   xml:space="preserve"
   id="svg2"
   version="1.1"><metadata
     id="metadata8"><rdf:RDF><cc:Work
         rdf:about=""><dc:format>image/svg+xml</dc:format><dc:type
           rdf:resource="http://purl.org/dc/dcmitype/StillImage" /></cc:Work></rdf:RDF></metadata><defs
     id="defs6" /><g
     transform="matrix(1.3333333,0,0,-1.3333333,0,2266.6667)"
     id="g10"><g
       transform="scale(0.1)"
       id="g12"><g
         transform="scale(1.47239)"
         id="g14"><path
           id="path16"
           style="fill:#303b49;fill-opacity:1;fill-rule:nonzero;stroke:none"
           d="M 16300,0 H 0 V 11545.8 H 16300 V 0" /></g><path
         id="path18"
         style="fill:#ffffff;fill-opacity:1;fill-rule:nonzero;stroke:none"
         d="m 5013.38,12013.2 c 0,-11.1 -8.98,-20 -20.05,-20 -11.08,0 -20.06,8.9 -20.06,20 0,11.1 8.98,20.1 20.06,20.1 11.07,0 20.05,-9 20.05,-20.1" /><path
         id="path20"
         style="fill:#ffffff;fill-opacity:1;fill-rule:nonzero;stroke:none"
         d="m 2713.38,9713.21 c 0,-11.07 -8.98,-20.06 -20.05,-20.06 -11.08,0 -20.06,8.99 -20.06,20.06 0,11.08 8.98,20.06 20.06,20.06 11.07,0 20.05,-8.98 20.05,-20.06" /><path
         id="path22"
         style="fill:#ffffff;fill-opacity:1;fill-rule:nonzero;stroke:none"
         d="m 3413.38,9013.21 c 0,-11.07 -8.98,-20.06 -20.05,-20.06 -11.08,0 -20.06,8.99 -20.06,20.06 0,11.08 8.98,20.06 20.06,20.06 11.07,0 20.05,-8.98 20.05,-20.06" /><path
         id="path24"
         style="fill:#ffffff;fill-opacity:1;fill-rule:nonzero;stroke:none"
         d="m 3344.84,3901.6 c 0,-11 -8.98,-20 -20.05,-20 -11.08,0 -20.06,9 -20.06,20 0,11.1 8.98,20.1 20.06,20.1 11.07,0 20.05,-9 20.05,-20.1" /><path
         id="path26"
         style="fill:#ffffff;fill-opacity:1;fill-rule:nonzero;stroke:none"
         d="m 10354.4,8241.91 c 0,-11.08 -9,-20.05 -20,-20.05 -11.1,0 -20.1,8.97 -20.1,20.05 0,11.08 9,20.06 20.1,20.06 11,0 20,-8.98 20,-20.06" /><path
         id="path28"
         style="fill:#ffffff;fill-opacity:1;fill-rule:nonzero;stroke:none"
         d="m 3744.84,1601.6 c 0,-11 -8.98,-20 -20.05,-20 -11.08,0 -20.06,9 -20.06,20 0,11.1 8.98,20.1 20.06,20.1 11.07,0 20.05,-9 20.05,-20.1" /><path
         id="path30"
         style="fill:#ffffff;fill-opacity:1;fill-rule:nonzero;stroke:none"
         d="m 16080.5,5038.6 c 0,-11.1 -9,-20.1 -20.1,-20.1 -11,0 -20,9 -20,20.1 0,11 9,20 20,20 11.1,0 20.1,-9 20.1,-20" /><g
         transform="scale(1.15077)"
         id="g32"><path
           id="path34"
           style="fill:#ffffff;fill-opacity:1;fill-rule:nonzero;stroke:none"
           d="m 16300,6420.74 c 0,-9.63 -7.8,-17.44 -17.5,-17.44 -9.5,0 -17.3,7.81 -17.3,17.44 0,9.62 7.8,17.43 17.3,17.43 9.7,0 17.5,-7.81 17.5,-17.43" /></g><g
         transform="scale(1.17531)"
         id="g36"><path
           id="path38"
           style="fill:#ffffff;fill-opacity:1;fill-rule:nonzero;stroke:none"
           d="m 16300,6797.18 c 0,-9.43 -7.7,-17.07 -17.1,-17.07 -9.4,0 -17,7.64 -17,17.07 0,9.42 7.6,17.07 17,17.07 9.4,0 17.1,-7.65 17.1,-17.07" /></g><g
         transform="scale(1.26447)"
         id="g40"><path
           id="path42"
           style="fill:#ffffff;fill-opacity:1;fill-rule:nonzero;stroke:none"
           d="m 16300,3220.4 c 0,-8.78 -7.1,-15.9 -15.9,-15.9 -8.8,0 -15.9,7.12 -15.9,15.9 0,8.77 7.1,15.81 15.9,15.81 8.8,0 15.9,-7.04 15.9,-15.81" /></g><path
         id="path44"
         style="fill:#ffffff;fill-opacity:1;fill-rule:nonzero;stroke:none"
         d="m 2728.15,12573.7 c 0,-11.1 -8.98,-20.1 -20.06,-20.1 -11.08,0 -20.06,9 -20.06,20.1 0,11.1 8.98,20 20.06,20 11.08,0 20.06,-8.9 20.06,-20" /><path
         id="path46"
         style="fill:#ffffff;fill-opacity:1;fill-rule:nonzero;stroke:none"
         d="m 1369.37,15523.9 c 0,-11.1 -8.98,-20.1 -20.06,-20.1 -11.08,0 -20.06,9 -20.06,20.1 0,11 8.98,20 20.06,20 11.08,0 20.06,-9 20.06,-20" /><g
         transform="scale(1.39104)"
         id="g48"><path
           id="path50"
           style="fill:#ffffff;fill-opacity:1;fill-rule:nonzero;stroke:none"
           d="m 16300,10493.6 c 0,-8 -6.4,-14.5 -14.4,-14.5 -8,0 -14.4,6.5 -14.4,14.5 0,7.9 6.4,14.4 14.4,14.4 8,0 14.4,-6.5 14.4,-14.4" /></g><path
         id="path52"
         style="fill:#ffffff;fill-opacity:1;fill-rule:nonzero;stroke:none"
         d="m 13663.2,16166 c 0,-11.1 -9,-20.1 -20,-20.1 -11.1,0 -20.1,9 -20.1,20.1 0,11 9,20 20.1,20 11,0 20,-9 20,-20" /><g
         transform="scale(1.24993)"
         id="g54"><path
           id="path56"
           style="fill:#ffffff;fill-opacity:1;fill-rule:nonzero;stroke:none"
           d="m 16300,9838.08 c 0,-8.86 -7.1,-16.05 -16,-16.05 -8.9,0 -16.1,7.19 -16.1,16.05 0,8.86 7.2,16.05 16.1,16.05 8.9,0 16,-7.19 16,-16.05" /></g><g
         transform="scale(1.33582)"
         id="g58"><path
           id="path60"
           style="fill:#ffffff;fill-opacity:1;fill-rule:nonzero;stroke:none"
           d="m 16300,8681.5 c 0,-8.29 -6.7,-15.02 -15,-15.02 -8.3,0 -15,6.73 -15,15.02 0,8.29 6.7,15.02 15,15.02 8.3,0 15,-6.73 15,-15.02" /></g><g
         transform="scale(1.43645)"
         id="g62"><path
           id="path64"
           style="fill:#ffffff;fill-opacity:1;fill-rule:nonzero;stroke:none"
           d="m 16300,6237.68 c 0,-7.71 -6.3,-13.96 -13.9,-13.96 -7.7,0 -14,6.25 -14,13.96 0,7.72 6.3,13.96 14,13.96 7.6,0 13.9,-6.24 13.9,-13.96" /></g><path
         id="path66"
         style="fill:#ffffff;fill-opacity:1;fill-rule:nonzero;stroke:none"
         d="m 8125.24,5814.6 c 0,-11.1 -8.98,-20 -20.05,-20 -11.08,0 -20.06,8.9 -20.06,20 0,11.1 8.98,20.1 20.06,20.1 11.07,0 20.05,-9 20.05,-20.1" /><path
         id="path68"
         style="fill:#ffffff;fill-opacity:1;fill-rule:nonzero;stroke:none"
         d="m 1117.2,7986.27 c 0,-11.07 -8.98,-20.06 -20.06,-20.06 -11.08,0 -20.06,8.99 -20.06,20.06 0,11.07 8.98,20.06 20.06,20.06 11.08,0 20.06,-8.99 20.06,-20.06" /><g
         transform="scale(1.25084)"
         id="g70"><path
           id="path72"
           style="fill:#ffffff;fill-opacity:1;fill-rule:nonzero;stroke:none"
           d="m 16300,12117.8 c 0,-8.9 -7.2,-16.1 -16.1,-16.1 -8.8,0 -16,7.2 -16,16.1 0,8.8 7.2,16 16,16 8.9,0 16.1,-7.2 16.1,-16" /></g><path
         id="path74"
         style="fill:#ffffff;fill-opacity:1;fill-rule:nonzero;stroke:none"
         d="m 10292.9,13760.9 c 0,-11.1 -9,-20 -20.1,-20 -11,0 -20,8.9 -20,20 0,11.1 9,20.1 20,20.1 11.1,0 20.1,-9 20.1,-20.1" /><path
         id="path76"
         style="fill:#ffffff;fill-opacity:1;fill-rule:nonzero;stroke:none"
         d="m 4605.15,14623.9 c 0,-11.1 -8.98,-20.1 -20.06,-20.1 -11.08,0 -20.06,9 -20.06,20.1 0,11 8.98,20 20.06,20 11.08,0 20.06,-9 20.06,-20" /><path
         id="path78"
         style="fill:#ffffff;fill-opacity:1;fill-rule:nonzero;stroke:none"
         d="m 5805.15,15523.9 c 0,-11.1 -8.98,-20.1 -20.06,-20.1 -11.08,0 -20.06,9 -20.06,20.1 0,11 8.98,20 20.06,20 11.08,0 20.06,-9 20.06,-20" /><g
         transform="scale(1.37694)"
         id="g80"><path
           id="path82"
           style="fill:#ffffff;fill-opacity:1;fill-rule:nonzero;stroke:none"
           d="m 16300,4707.23 c 0,-7.98 -6.5,-14.52 -14.6,-14.52 -8.1,0 -14.6,6.54 -14.6,14.52 0,8.06 6.5,14.6 14.6,14.6 8.1,0 14.6,-6.54 14.6,-14.6" /></g><path
         id="path84"
         style="fill:#ffffff;fill-opacity:1;fill-rule:nonzero;stroke:none"
         d="m 7058.51,12707.2 c 0,-11.1 -8.98,-20.1 -20.06,-20.1 -11.08,0 -20.06,9 -20.06,20.1 0,11.1 8.98,20.1 20.06,20.1 11.08,0 20.06,-9 20.06,-20.1" /><path
         id="path86"
         style="fill:#ffffff;fill-opacity:1;fill-rule:nonzero;stroke:none"
         d="m 15432.1,14374.7 c 6.9,-8.7 5.4,-21.3 -3.2,-28.2 -8.7,-6.9 -21.3,-5.4 -28.2,3.3 -6.9,8.6 -5.5,21.2 3.2,28.1 8.7,6.9 21.3,5.5 28.2,-3.2" /><path
         id="path88"
         style="fill:#ffffff;fill-opacity:1;fill-rule:nonzero;stroke:none"
         d="m 14471.7,15593.3 c 6.9,-8.7 5.5,-21.3 -3.2,-28.2 -8.7,-6.9 -21.3,-5.4 -28.2,3.2 -6.9,8.7 -5.4,21.3 3.3,28.2 8.6,6.9 21.2,5.5 28.1,-3.2" /><g
         transform="scale(1.16282)"
         id="g90"><path
           id="path92"
           style="fill:#ffffff;fill-opacity:1;fill-rule:nonzero;stroke:none"
           d="m 16294.1,11121.5 c 5.9,-7.5 4.7,-18.3 -2.8,-24.2 -7.5,-6 -18.3,-4.7 -24.2,2.7 -6,7.5 -4.8,18.3 2.7,24.3 7.5,5.9 18.3,4.7 24.3,-2.8" /></g><g
         transform="scale(1.21853)"
         id="g94"><path
           id="path96"
           style="fill:#ffffff;fill-opacity:1;fill-rule:nonzero;stroke:none"
           d="m 16292.3,11109.1 c 7.7,-9.7 6.1,-23.8 -3.6,-31.5 -9.7,-7.8 -23.8,-6.1 -31.5,3.6 -7.8,9.7 -6.1,23.8 3.6,31.5 9.7,7.7 23.8,6.1 31.5,-3.6" /></g><g
         transform="scale(1.05289)"
         id="g98"><path
           id="path100"
           style="fill:#ffffff;fill-opacity:1;fill-rule:nonzero;stroke:none"
           d="m 16291.1,10387.4 c 8.9,-11.2 7,-27.6 -4.2,-36.5 -11.2,-8.9 -27.6,-7 -36.5,4.2 -8.9,11.2 -7,27.5 4.2,36.5 11.2,8.9 27.5,7 36.5,-4.2" /></g><g
         transform="scale(1.14779)"
         id="g102"><path
           id="path104"
           style="fill:#ffffff;fill-opacity:1;fill-rule:nonzero;stroke:none"
           d="m 16287.6,9952.78 c 12.4,-15.57 9.8,-38.23 -5.7,-50.61 -15.6,-12.37 -38.3,-9.79 -50.6,5.78 -12.4,15.56 -9.8,38.21 5.7,50.59 15.6,12.38 38.3,9.8 50.6,-5.76" /></g><path
         id="path106"
         style="fill:#ffffff;fill-opacity:1;fill-rule:nonzero;stroke:none"
         d="m 5045.73,9170.4 c 14.21,-17.87 11.24,-43.87 -6.62,-58.07 -17.86,-14.21 -43.87,-11.24 -58.07,6.63 -14.21,17.86 -11.25,43.86 6.62,58.07 17.87,14.21 43.87,11.24 58.07,-6.63" /><path
         id="path108"
         style="fill:#ffffff;fill-opacity:1;fill-rule:nonzero;stroke:none"
         d="m 1328.04,2475.5 c 14.2,-17.8 11.24,-43.8 -6.63,-58 -17.87,-14.2 -43.87,-11.3 -58.08,6.6 -14.2,17.9 -11.24,43.9 6.63,58.1 17.87,14.2 43.87,11.2 58.08,-6.7" /><path
         id="path110"
         style="fill:#ffffff;fill-opacity:1;fill-rule:nonzero;stroke:none"
         d="m 1745.23,2075.9 c 14.21,-17.9 11.24,-43.9 -6.63,-58.1 -17.86,-14.2 -43.86,-11.2 -58.07,6.7 -14.21,17.8 -11.24,43.8 6.63,58 17.86,14.2 43.87,11.3 58.07,-6.6" /><path
         id="path112"
         style="fill:#ffffff;fill-opacity:1;fill-rule:nonzero;stroke:none"
         d="m 7250.74,8183.27 c 14.21,-17.87 11.24,-43.87 -6.63,-58.07 -17.86,-14.21 -43.87,-11.24 -58.07,6.63 -14.21,17.86 -11.24,43.86 6.63,58.06 17.86,14.21 43.86,11.24 58.07,-6.62" /><g
         transform="scale(1.01026)"
         id="g114"><path
           id="path116"
           style="fill:#ffffff;fill-opacity:1;fill-rule:nonzero;stroke:none"
           d="m 6346.46,16279.4 c 14.07,-17.7 11.12,-43.4 -6.56,-57.5 -17.68,-14.1 -43.43,-11.1 -57.48,6.6 -14.07,17.6 -11.13,43.4 6.56,57.4 17.68,14.1 43.41,11.2 57.48,-6.5" /></g><path
         id="path118"
         style="fill:#ffffff;fill-opacity:1;fill-rule:nonzero;stroke:none"
         d="m 1401.72,10748.1 c 14.2,-17.9 11.24,-43.9 -6.63,-58.1 -17.86,-14.2 -43.86,-11.2 -58.07,6.7 -14.21,17.8 -11.24,43.8 6.62,58 17.87,14.2 43.87,11.3 58.08,-6.6" /><g
         transform="scale(1.10235)"
         id="g120"><path
           id="path122"
           style="fill:#ffffff;fill-opacity:1;fill-rule:nonzero;stroke:none"
           d="m 16287.1,616.683 c 12.9,-16.24 10.3,-39.826 -6,-52.707 -16.2,-12.88 -39.8,-10.159 -52.7,5.989 -12.9,16.237 -10.1,39.823 6.1,52.707 16.2,12.881 39.7,10.159 52.6,-5.989" /></g><g
         transform="scale(1.08166)"
         id="g124"><path
           id="path126"
           style="fill:#ffffff;fill-opacity:1;fill-rule:nonzero;stroke:none"
           d="m 16286.9,7705.83 c 13.1,-16.52 10.4,-40.55 -6.1,-53.69 -16.6,-13.14 -40.6,-10.4 -53.7,6.13 -13.2,16.51 -10.4,40.55 6.1,53.68 16.5,13.14 40.5,10.39 53.7,-6.12" /></g><path
         id="path128"
         style="fill:#ffffff;fill-opacity:1;fill-rule:nonzero;stroke:none"
         d="m 9088.28,15626.6 c 14.21,-17.9 11.24,-43.9 -6.63,-58.1 -17.87,-14.2 -43.87,-11.2 -58.07,6.7 -14.21,17.8 -11.24,43.8 6.63,58 17.86,14.2 43.86,11.3 58.07,-6.6" /><path
         id="path130"
         style="fill:#ffffff;fill-opacity:1;fill-rule:nonzero;stroke:none"
         d="m 4597.38,12983.8 c 14.21,-17.9 11.24,-43.9 -6.63,-58.1 -17.86,-14.2 -43.87,-11.2 -58.07,6.6 -14.21,17.9 -11.24,43.9 6.63,58.1 17.86,14.2 43.86,11.3 58.07,-6.6" /><path
         id="path132"
         style="fill:#ffffff;fill-opacity:1;fill-rule:nonzero;stroke:none"
         d="m 5455.25,1114.7 c 14.21,-17.8 11.24,-43.8 -6.62,-58 -17.87,-14.3 -43.87,-11.3 -58.07,6.6 -14.21,17.8 -11.24,43.8 6.62,58 17.87,14.3 43.87,11.3 58.07,-6.6" /><path
         id="path134"
         style="fill:#ffffff;fill-opacity:1;fill-rule:nonzero;stroke:none"
         d="m 8339.94,5302.8 c 14.21,-17.9 11.24,-43.9 -6.63,-58.1 -17.87,-14.2 -43.87,-11.3 -58.07,6.6 -14.21,17.9 -11.24,43.9 6.63,58.1 17.86,14.2 43.86,11.2 58.07,-6.6" /><g
         transform="scale(1.17817)"
         id="g136"><path
           id="path138"
           style="fill:#ffffff;fill-opacity:1;fill-rule:nonzero;stroke:none"
           d="m 16287.9,9327.88 c 12.1,-15.16 9.6,-37.23 -5.6,-49.29 -15.1,-12.06 -37.2,-9.54 -49.3,5.62 -12.1,15.17 -9.6,37.24 5.6,49.3 15.1,12.05 37.2,9.54 49.3,-5.63" /></g><g
         transform="scale(1.43555)"
         id="g140"><path
           id="path142"
           style="fill:#ffffff;fill-opacity:1;fill-rule:nonzero;stroke:none"
           d="m 16290.1,11374.8 c 9.9,-12.5 7.8,-30.6 -4.6,-40.5 -12.5,-9.9 -30.6,-7.8 -40.5,4.6 -9.9,12.5 -7.8,30.6 4.6,40.5 12.5,9.9 30.6,7.8 40.5,-4.6" /></g><g
         transform="scale(1.29357)"
         id="g144"><path
           id="path146"
           style="fill:#ffffff;fill-opacity:1;fill-rule:nonzero;stroke:none"
           d="m 16289,3051.56 c 11,-13.77 8.7,-33.94 -5.1,-44.92 -13.8,-10.98 -33.9,-8.66 -44.9,5.18 -11,13.76 -8.7,33.86 5.1,44.84 13.8,11.05 33.9,8.73 44.9,-5.1" /></g><path
         id="path148"
         style="fill:#ffffff;fill-opacity:1;fill-rule:nonzero;stroke:none"
         d="m 6443.24,10560.1 c 14.21,-17.9 11.24,-43.9 -6.62,-58.1 -17.87,-14.2 -43.87,-11.3 -58.08,6.6 -14.2,17.9 -11.24,43.9 6.63,58.1 17.86,14.2 43.86,11.2 58.07,-6.6" /><path
         id="path150"
         style="fill:#ffffff;fill-opacity:1;fill-rule:nonzero;stroke:none"
         d="m 7492.53,2542.6 c 14.21,-17.9 11.24,-43.9 -6.63,-58.1 -17.86,-14.2 -43.86,-11.2 -58.07,6.7 -14.2,17.8 -11.24,43.8 6.63,58 17.86,14.2 43.87,11.3 58.07,-6.6" /><path
         id="path152"
         style="fill:#ffffff;fill-opacity:1;fill-rule:nonzero;stroke:none"
         d="m 2745.73,14054.5 c 14.21,-17.8 11.24,-43.8 -6.62,-58 -17.86,-14.2 -43.87,-11.3 -58.07,6.6 -14.21,17.9 -11.25,43.9 6.62,58.1 17.87,14.2 43.87,11.2 58.07,-6.7" /><path
         id="path154"
         style="fill:#ffffff;fill-opacity:1;fill-rule:nonzero;stroke:none"
         d="m 8918.17,1133.3 c 9.39,-11.8 7.43,-29 -4.39,-38.4 -11.81,-9.4 -29,-7.4 -38.39,4.4 -9.39,11.8 -7.44,29 4.38,38.4 11.81,9.4 29,7.4 38.4,-4.4" /><path
         id="path156"
         style="fill:#ffffff;fill-opacity:1;fill-rule:nonzero;stroke:none"
         d="m 13889.5,6289.4 c 9.4,-11.8 7.4,-29 -4.4,-38.4 -11.8,-9.3 -29,-7.4 -38.4,4.4 -9.4,11.8 -7.4,29 4.4,38.4 11.8,9.4 29,7.5 38.4,-4.4" /><path
         id="path158"
         style="fill:#ffffff;fill-opacity:1;fill-rule:nonzero;stroke:none"
         d="m 6917.96,7441.37 c 9.4,-11.82 7.44,-29.01 -4.38,-38.4 -11.81,-9.4 -29,-7.43 -38.39,4.38 -9.4,11.81 -7.44,29.01 4.38,38.4 11.81,9.39 29,7.43 38.39,-4.38" /><path
         id="path160"
         style="fill:#ffffff;fill-opacity:1;fill-rule:nonzero;stroke:none"
         d="m 674.258,5515.4 c 9.394,-11.8 7.43,-29 -4.379,-38.4 -11.816,-9.4 -29.004,-7.4 -38.399,4.4 -9.394,11.8 -7.433,29 4.379,38.4 11.813,9.4 29.004,7.4 38.399,-4.4" /><path
         id="path162"
         style="fill:#ffffff;fill-opacity:1;fill-rule:nonzero;stroke:none"
         d="m 4738.14,1920.6 c 9.4,-11.8 7.44,-29 -4.38,-38.4 -11.81,-9.4 -29,-7.4 -38.39,4.4 -9.39,11.8 -7.44,29 4.38,38.4 11.81,9.4 29,7.4 38.39,-4.4" /><g
         transform="scale(1.10213)"
         id="g164"><path
           id="path166"
           style="fill:#ffffff;fill-opacity:1;fill-rule:nonzero;stroke:none"
           d="m 16294.6,3745.03 c 5.4,-8.53 2.9,-19.79 -5.7,-25.05 -8.5,-5.35 -19.7,-2.81 -25.1,5.72 -5.3,8.53 -2.7,19.78 5.8,25.04 8.5,5.35 19.7,2.81 25,-5.71" /></g><g
         transform="scale(1.18975)"
         id="g168"><path
           id="path170"
           style="fill:#ffffff;fill-opacity:1;fill-rule:nonzero;stroke:none"
           d="m 16299.2,2327.88 c -0.6,-9.25 -8.7,-16.23 -18,-15.55 -9.3,0.75 -16.2,8.82 -15.6,18.07 0.8,9.33 8.8,16.3 18.1,15.55 9.3,-0.68 16.3,-8.75 15.5,-18.07" /></g><path
         id="path172"
         style="fill:#ffffff;fill-opacity:1;fill-rule:nonzero;stroke:none"
         d="m 14436.8,3588.5 c 14.2,-5.1 21.7,-20.7 16.7,-34.9 -5.1,-14.2 -20.7,-21.7 -34.9,-16.7 -14.2,5 -21.7,20.6 -16.7,34.9 5,14.2 20.6,21.7 34.9,16.7" /><g
         transform="scale(1.21345)"
         id="g174"><path
           id="path176"
           style="fill:#ffffff;fill-opacity:1;fill-rule:nonzero;stroke:none"
           d="m 16293,2109.36 c 7,-10.3 4.4,-24.31 -5.9,-31.31 -10.3,-7.01 -24.4,-4.29 -31.4,6.01 -6.9,10.22 -4.2,24.23 6.1,31.24 10.3,7 24.3,4.36 31.2,-5.94" /></g><path
         id="path178"
         style="fill:#ffffff;fill-opacity:1;fill-rule:nonzero;stroke:none"
         d="m 11318.9,15519.2 c 8.4,-12.5 5.2,-29.5 -7.3,-38 -12.5,-8.5 -29.5,-5.2 -38,7.3 -8.4,12.4 -5.2,29.4 7.3,37.9 12.5,8.5 29.5,5.3 38,-7.2" /><g
         transform="scale(1.43039)"
         id="g180"><path
           id="path182"
           style="fill:#ffffff;fill-opacity:1;fill-rule:nonzero;stroke:none"
           d="m 16294.1,588.723 c 5.9,-8.739 3.6,-20.624 -5.1,-26.566 -8.8,-5.943 -20.7,-3.635 -26.5,5.104 -6,8.668 -3.7,20.553 5,26.495 8.7,5.943 20.6,3.706 26.6,-5.033" /></g><path
         id="path184"
         style="fill:#ffffff;fill-opacity:1;fill-rule:nonzero;stroke:none"
         d="m 6337.87,7958.38 c 0,-11.08 -8.98,-20.06 -20.06,-20.06 -11.08,0 -20.06,8.98 -20.06,20.06 0,11.08 8.98,20.06 20.06,20.06 11.08,0 20.06,-8.98 20.06,-20.06" /><path
         id="path186"
         style="fill:#ffffff;fill-opacity:1;fill-rule:nonzero;stroke:none"
         d="m 3685.84,7713.79 c 5.89,-9.39 3.05,-21.77 -6.34,-27.65 -9.39,-5.89 -21.77,-3.04 -27.65,6.34 -5.88,9.39 -3.04,21.77 6.34,27.66 9.39,5.88 21.77,3.03 27.65,-6.35" /><g
         transform="scale(1.2086)"
         id="g188"><path
           id="path190"
           style="fill:#ffffff;fill-opacity:1;fill-rule:nonzero;stroke:none"
           d="m 16274.2,6139.37 c 8.3,3.81 18.2,0.14 22,-8.19 3.8,-8.34 0.2,-18.19 -8.2,-22 -8.4,-3.81 -18.2,-0.13 -22,8.2 -3.8,8.33 -0.1,18.18 8.2,21.99" /></g><path
         id="path192"
         style="fill:#ffffff;fill-opacity:1;fill-rule:nonzero;stroke:none"
         d="m 8947.64,9214.06 c 10.07,4.61 21.97,0.17 26.58,-9.9 4.6,-10.08 0.17,-21.98 -9.9,-26.59 -10.08,-4.6 -21.98,-0.17 -26.59,9.91 -4.6,10.07 -0.17,21.98 9.91,26.58" /><g
         transform="scale(1.22981)"
         id="g194"><path
           id="path196"
           style="fill:#ffffff;fill-opacity:1;fill-rule:nonzero;stroke:none"
           d="m 16274.6,6787.79 c 8.2,3.74 17.9,0.14 21.7,-8.06 3.7,-8.19 0.1,-17.87 -8.1,-21.61 -8.2,-3.74 -17.9,-0.13 -21.6,8.05 -3.8,8.19 -0.2,17.88 8,21.62" /></g><g
         transform="scale(1.29588)"
         id="g198"><path
           id="path200"
           style="fill:#ffffff;fill-opacity:1;fill-rule:nonzero;stroke:none"
           d="m 16269.4,7049.75 c 4.7,7.14 14.3,9.11 21.5,4.41 7.1,-4.7 9.1,-14.3 4.4,-21.44 -4.7,-7.14 -14.3,-9.12 -21.5,-4.41 -7.1,4.7 -9.1,14.3 -4.4,21.44" /></g><path
         id="path202"
         style="fill:#ffffff;fill-opacity:1;fill-rule:nonzero;stroke:none"
         d="m 14518.9,1288.2 c -7.8,7.9 -7.7,20.6 0.2,28.4 7.9,7.8 20.6,7.7 28.4,-0.2 7.8,-7.9 7.7,-20.6 -0.2,-28.4 -7.9,-7.7 -20.6,-7.6 -28.4,0.2" /><path
         id="path204"
         style="fill:#ffffff;fill-opacity:1;fill-rule:nonzero;stroke:none"
         d="m 13529,1295.9 c -7.8,7.9 -7.7,20.6 0.2,28.4 7.9,7.7 20.6,7.6 28.4,-0.2 7.8,-7.9 7.7,-20.6 -0.2,-28.4 -7.9,-7.8 -20.6,-7.7 -28.4,0.2" /><path
         id="path206"
         style="fill:#ffffff;fill-opacity:1;fill-rule:nonzero;stroke:none"
         d="m 12423.2,2030.7 c -10.8,2.5 -17.5,13.3 -14.9,24.1 2.5,10.8 13.4,17.5 24.1,14.9 10.8,-2.6 17.5,-13.4 14.9,-24.2 -2.5,-10.7 -13.4,-17.4 -24.1,-14.8" /><path
         id="path208"
         style="fill:#ffffff;fill-opacity:1;fill-rule:nonzero;stroke:none"
         d="m 4186.93,5431.6 c 5.88,-9.4 3.05,-21.8 -6.34,-27.7 -9.39,-5.9 -21.77,-3 -27.65,6.4 -5.88,9.4 -3.04,21.7 6.34,27.6 9.39,5.9 21.77,3.1 27.65,-6.3" /><path
         id="path210"
         style="fill:#ffffff;fill-opacity:1;fill-rule:nonzero;stroke:none"
         d="m 4916.34,6087 c 14.23,-5 21.7,-20.6 16.68,-34.8 -5.02,-14.3 -20.63,-21.7 -34.87,-16.7 -14.23,5 -21.69,20.6 -16.68,34.9 5.02,14.2 20.63,21.7 34.87,16.6" /><g
         transform="scale(1.13186)"
         id="g212"><path
           id="path214"
           style="fill:#ffffff;fill-opacity:1;fill-rule:nonzero;stroke:none"
           d="m 16280.8,14329.6 c 12.7,-4.5 19.2,-18.2 14.8,-30.8 -4.4,-12.6 -18.2,-19.2 -30.8,-14.8 -12.6,4.5 -19.1,18.3 -14.7,30.8 4.4,12.6 18.2,19.2 30.7,14.8" /></g><path
         id="path216"
         style="fill:#dbd2d2;fill-opacity:1;fill-rule:nonzero;stroke:none"
         d="m 13225.4,10517.1 c -565.5,3.4 -748.5,412.3 -942.3,845.2 -33.9,75.6 -68.9,153.9 -106.7,232.2 -147.3,304.7 -139.7,628.3 20.3,865.5 144.1,213.6 392.7,325.1 682.2,306 l -14.5,-219.6 c -212.5,14.1 -384.7,-60.3 -485.3,-209.5 -115.7,-171.5 -117.4,-413.2 -4.7,-646.7 39.3,-81.2 75,-160.9 109.5,-238 94.2,-210.5 175.6,-392.3 289.4,-521.1 117.6,-133 257.5,-192.8 453.5,-194 l -1.4,-220" /><path
         id="path218"
         style="fill:#4d5cb0;fill-opacity:1;fill-rule:nonzero;stroke:none"
         d="m 12911.6,12464.4 -65.8,3 c -45.3,2 -80.4,40.5 -78.4,85.8 l 8.4,186.4 c 2,45.4 40.4,80.5 85.8,78.5 l 65.7,-3 -15.7,-350.7" /><path
         id="path220"
         style="fill:#4d5cb0;fill-opacity:1;fill-rule:nonzero;stroke:none"
         d="m 14657,7799.2 -1312.7,183.47 c -364.6,50.95 -618.9,387.85 -567.9,752.46 l 379.6,2731.27 c 50.9,364.6 387.8,618.9 752.4,568 l 1350.6,-188.8 c 245.2,-34.3 416.3,-260.9 382,-506.1 L 15206.3,8213.76 C 15169.1,7947.61 14923.2,7762 14657,7799.2" /><path
         id="path222"
         style="fill:#ffffff;fill-opacity:1;fill-rule:nonzero;stroke:none"
         d="m 15260.4,9707.58 c -10.9,0 -23,-9.04 -33.6,-25.17 -13,-19.93 -21.9,-47.6 -25,-77.89 -3.1,-30.3 0,-59.18 8.7,-81.35 7.4,-19.02 18.3,-30.6 29.7,-31.77 11.4,-1.12 24.4,7.97 35.5,25.07 13.1,19.94 21.9,47.6 25,77.89 v 0.01 c 3.2,30.29 0.1,59.17 -8.6,81.34 -7.5,19.02 -18.3,30.6 -29.7,31.77 -0.7,0.07 -1.3,0.1 -2,0.1 z m -18.1,-242.36 c -1.6,0 -3.2,0.08 -4.8,0.24 -21.7,2.24 -40,19.34 -51.3,48.18 -10.2,25.97 -13.8,59.19 -10.3,93.54 3.5,34.35 13.8,66.14 29.1,89.49 16.9,25.94 38.3,38.91 60,36.75 21.8,-2.24 40,-19.35 51.3,-48.18 10.2,-25.97 13.9,-59.19 10.4,-93.54 v 0 c -3.5,-34.35 -13.9,-66.13 -29.1,-89.48 -15.7,-24.03 -35.2,-37 -55.3,-37" /><path
         id="path224"
         style="fill:#ffffff;fill-opacity:1;fill-rule:nonzero;stroke:none"
         d="m 15196,9314.52 c -23.1,0 -52.3,-41.14 -58.6,-103.06 -3.1,-30.29 -0.1,-59.18 8.6,-81.35 7.5,-19.02 18.3,-30.6 29.8,-31.77 11.3,-1.16 24.3,7.97 35.5,25.07 13,19.94 21.9,47.61 25,77.89 6.5,63.68 -15,110.72 -38.4,113.12 -0.6,0.07 -1.3,0.1 -1.9,0.1 z m -18.1,-242.36 c -1.6,0 -3.2,0.09 -4.8,0.25 -21.8,2.23 -40,19.34 -51.3,48.17 -10.2,25.97 -13.9,59.19 -10.4,93.54 7.7,75.12 46.8,130.62 89.2,126.24 42.3,-4.34 69.4,-66.59 61.6,-141.71 -3.5,-34.36 -13.8,-66.14 -29.1,-89.49 -15.7,-24.03 -35.1,-37 -55.2,-37" /><path
         id="path226"
         style="fill:#ffffff;fill-opacity:1;fill-rule:nonzero;stroke:none"
         d="m 14166.4,13885.3 c -685.9,0 -1243.9,-558 -1243.9,-1243.9 0,-685.9 558,-1243.9 1243.9,-1243.9 685.9,0 1243.9,558 1243.9,1243.9 0,685.9 -558,1243.9 -1243.9,1243.9 z m 0,-2513.9 c -700.3,0 -1270,569.7 -1270,1270 0,700.3 569.7,1270 1270,1270 700.2,0 1269.9,-569.7 1269.9,-1270 0,-700.3 -569.7,-1270 -1269.9,-1270" /><path
         id="path228"
         style="fill:#151c28;fill-opacity:1;fill-rule:nonzero;stroke:none"
         d="m 14703.5,13364.4 c -49.7,-188.5 -198.7,-275 -370.1,-229.8 -171.6,45.2 -217.2,189 -167.4,377.5 49.6,188.5 177.5,306.1 348.9,260.8 171.5,-45.2 238.3,-220 188.6,-408.5" /><path
         id="path230"
         style="fill:#a7a1f1;fill-opacity:1;fill-rule:nonzero;stroke:none"
         d="m 14315.1,13174.5 c 111.9,-28.9 303.1,-89.9 305.7,5 6.3,231.6 -352,390.5 -536.1,177.8 9.3,-120.5 109.2,-151.4 230.4,-182.8" /><path
         id="path232"
         style="fill:#ba9f8e;fill-opacity:1;fill-rule:nonzero;stroke:none"
         d="m 14438.3,11803.2 61.7,517.4 -524.6,-103.1 -83.6,-429.6 c -4.7,-23.9 -19.2,-44.6 -40,-57.2 l -41.7,-25.2 -65.5,-201.7 205.2,-300.3 350.1,38.2 286.7,325.9 -70.2,52.8 c -56.7,42.7 -86.5,112.3 -78.1,182.8" /><path
         id="path234"
         style="fill:#967b6e;fill-opacity:1;fill-rule:nonzero;stroke:none"
         d="m 13892.2,11789.9 c 0,0 281.8,59.7 429.6,277.2 132.5,194.8 -374.6,23.3 -374.6,23.3 l -55,-300.5" /><path
         id="path236"
         style="fill:#151c28;fill-opacity:1;fill-rule:nonzero;stroke:none"
         d="m 14754.9,12769.6 c -31.7,-306.3 -311.1,-560.7 -620,-528.8 -309,31.9 -530.6,338 -498.9,644.4 31.6,306.4 307.7,528.8 616.7,496.9 309,-31.9 533.8,-306.1 502.2,-612.5" /><path
         id="path238"
         style="fill:#ba9f8e;fill-opacity:1;fill-rule:nonzero;stroke:none"
         d="m 14507.8,12688.2 c -12.5,267.7 -224.2,427.7 -465.4,452.7 -241.2,24.9 -377.7,-121.1 -402.7,-363.1 0,0 -30,-308.9 -31.6,-323.9 -18.7,-181 102.8,-537.8 277,-555.8 201.1,-20.8 571.5,211.4 589.5,385.6 1.5,15 37.9,303.1 33.2,404.5" /><path
         id="path240"
         style="fill:#151c28;fill-opacity:1;fill-rule:nonzero;stroke:none"
         d="m 14068.4,12741.8 c 0,0 181.7,-0.7 216,-7.6 57.2,-11.6 65.7,-50.3 72.5,-71.6 2.4,-7.3 -237.9,-6 -271.1,10.1 -33.3,16 -17.4,69.1 -17.4,69.1" /><path
         id="path242"
         style="fill:#151c28;fill-opacity:1;fill-rule:nonzero;stroke:none"
         d="m 13873.5,12761.9 c 0,0 -177.9,36.5 -213,36.7 -6.7,0 -12.8,-0.4 -18.5,-1.3 -19.7,-2.1 -26.3,-66.3 -11,-69.9 71.1,-15.6 187.1,-35.7 211.4,-29.6 35.8,8.9 31.1,64.1 31.1,64.1" /><path
         id="path244"
         style="fill:#967b6e;fill-opacity:1;fill-rule:nonzero;stroke:none"
         d="m 13951,12316.5 c 16.9,-0.5 33.1,-29.9 33.1,-29.9 l -68.8,3.3 c 12.3,15.1 18.9,27.2 35.7,26.6" /><path
         id="path246"
         style="fill:#967b6e;fill-opacity:1;fill-rule:nonzero;stroke:none"
         d="m 13860,12334.3 c 16,-5.2 20.5,-37 20.5,-37 l -58.3,19.1 c 0,0 21.8,23.2 37.8,17.9" /><path
         id="path248"
         style="fill:#967b6e;fill-opacity:1;fill-rule:nonzero;stroke:none"
         d="m 13881.4,12431.3 c 20.8,119 18.2,255.6 18.2,257 l -27.5,-0.6 c 0.1,-1.4 2.6,-135.3 -17.7,-251.6 l 27,-4.8" /><path
         id="path250"
         style="fill:#ba9f8e;fill-opacity:1;fill-rule:nonzero;stroke:none"
         d="m 14546.6,12627.4 c 22.6,22.2 73.9,34.9 120.9,-37.7 46.9,-72.8 -15,-320.9 -149.6,-307 -134.6,13.9 -33,284.2 28.7,344.7" /><path
         id="path252"
         style="fill:#967b6e;fill-opacity:1;fill-rule:nonzero;stroke:none"
         d="m 14621.7,12563 c 0,0 -62.5,-3.5 -70.8,-59.8 -8.3,-56.3 -12.7,-122.9 -12.7,-122.9 l 83.5,182.7" /><path
         id="path254"
         style="fill:#151c28;fill-opacity:1;fill-rule:nonzero;stroke:none"
         d="m 13794.7,12590.5 c -8.7,-37.6 -31.4,-68.1 -65,-66.1 -33.7,2 -59.1,34.8 -56.8,73.3 2.3,38.5 18.3,6.6 52,4.6 33.6,-2 73.9,6.1 69.8,-11.8" /><path
         id="path256"
         style="fill:#151c28;fill-opacity:1;fill-rule:nonzero;stroke:none"
         d="m 13823.8,12565.7 c -77.2,37.6 -120.4,41 -170.3,45.1 l 1.7,20.9 c 52.1,-4.2 97,-7.8 177.8,-47.1 l -9.2,-18.9" /><path
         id="path258"
         style="fill:#151c28;fill-opacity:1;fill-rule:nonzero;stroke:none"
         d="m 14093.3,12554.1 c 0.8,-38.5 16.8,-73 50.1,-77.9 33.4,-4.9 64.9,22 70.6,60.1 5.6,38.2 -16.6,10.2 -50,15.1 -33.3,4.9 -71.1,21.1 -70.7,2.7" /><path
         id="path260"
         style="fill:#151c28;fill-opacity:1;fill-rule:nonzero;stroke:none"
         d="m 14059.7,12535.8 -5.1,20.4 c 86.9,21.9 131.4,16.3 182.9,9.9 12.5,-1.6 25.5,-3.2 39.7,-4.5 l -1.9,-20.9 c -14.5,1.3 -27.7,3 -40.4,4.6 -51.5,6.4 -92,11.5 -175.2,-9.5" /><path
         id="path262"
         style="fill:#967b6e;fill-opacity:1;fill-rule:nonzero;stroke:none"
         d="m 13890.5,12086.8 c -46.8,7 -79.4,29.4 -81.4,30.8 -6.2,4.3 -7.6,12.8 -3.3,18.9 4.3,6.1 12.7,7.6 18.8,3.3 1.1,-0.7 65.9,-44.6 139,-20.7 7.1,2.3 14.8,-1.5 17.1,-8.7 2.3,-7.1 -1.5,-14.7 -8.7,-17.1 -29.4,-9.6 -57.3,-10.1 -81.5,-6.5" /><path
         id="path264"
         style="fill:#967b6e;fill-opacity:1;fill-rule:nonzero;stroke:none"
         d="m 13988.1,12162.8 c -0.3,0 -0.6,0.1 -0.9,0.1 -7.5,0.9 -16.8,3.4 -26.6,6 -9.6,2.6 -20.4,5.5 -25.9,5.7 -18.9,0.5 -59.4,5.3 -74.7,8.4 -5.8,1.2 -16.2,1.1 -25.5,0.9 -10.1,-0.2 -18.8,-0.3 -25.2,0.9 -42.1,8.1 -63.7,26.6 -64.6,27.4 -5.7,5 -6.2,13.7 -1.2,19.4 4.9,5.7 13.5,6.3 19.2,1.3 0.5,-0.3 17.8,-14.6 51.8,-21.1 3.6,-0.7 12.1,-0.6 19.6,-0.5 11.1,0.2 22.7,0.4 31.4,-1.4 13.8,-2.8 53.1,-7.5 70,-7.9 8.7,-0.3 20.1,-3.3 32.3,-6.6 8.4,-2.3 17.1,-4.6 22.5,-5.2 17,-2 37,2.1 58.2,6.4 9.8,2.1 20,4.1 30.5,5.7 7.5,1.2 14.5,-4 15.6,-11.5 1.2,-7.5 -4,-14.4 -11.5,-15.6 -9.8,-1.5 -19.6,-3.5 -29.2,-5.4 -22.9,-4.7 -44.6,-9.2 -65.8,-7" /><path
         id="path266"
         style="fill:#dbd2d2;fill-opacity:1;fill-rule:nonzero;stroke:none"
         d="m 15056.7,11289.7 c -27.1,-243 -522.7,-387.1 -1107.1,-321.9 -584.3,65.1 -1036.1,314.9 -1009,557.9 27.1,242.9 522.8,347.1 1107.1,281.9 584.4,-65.2 1036.1,-274.9 1009,-517.9" /><g
         transform="scale(1.02212)"
         id="g268"><path
           id="path270"
           style="fill:#ffffff;fill-opacity:1;fill-rule:nonzero;stroke:none"
           d="m 16182.4,9626.42 c -120.4,414.78 -930.9,1359.18 -1303.3,1545.38 -372.4,186.2 -1537.5,331 -2290.1,316.5 -367.1,27.4 -1266.1,-465.5 -1266.1,-465.5 l -504,648.1 c -79.9,102.6 -229.2,117.5 -327.8,32.8 -89.8,-77.1 -197.3,-167.5 -283.5,-234.3 -102.5,-79.4 -139.6,-217.2 -90.8,-337.2 161.7,-397.1 557,-1226.5 1038.5,-1226.5 633,0 1135.8,446.9 1135.8,446.9 l -341.6,-1366.17 c -56.1,-224.75 -163.6,-433.4 -313.8,-609.77 -314.1,-368.74 -858.4,-1028.28 -1001.8,-1332.17 -204.7,-434.32 -477.8,-2563.13 -477.8,-2563.13 0,0 -527.54,-552.28 -657.88,-813.01 -56.29,-112.61 -50,-225.13 12.76,-300.16 159.03,-17.13 306.73,25.34 306.73,25.34 301.09,61.73 1074.29,580.95 1171.09,679.37 36.3,36.88 68.8,97.34 95.7,160.35 -2.5,25.34 -5.9,50.09 -9.7,73.37 -16.9,103.71 -4.2,210.16 35.3,307.6 l 666.6,1642.17 787.4,1030.25 c 0,0 -273,-695.06 -273,-1179.15 0,-370.12 87.1,-1686.89 128.1,-2286.62 13,-191.26 -9.1,-383.22 -65.2,-566.46 -74.1,-242.25 -167.4,-588 -156.1,-759.01 3.8,-55.38 19.3,-102.54 44.1,-141.38 90.1,-36.1 209.1,-44.9 366.3,-10.07 285.7,63.2 510.5,480.37 579.8,816.92 0,0 114.2,347.51 227.3,758.33 l 59,1639.62 c 6.3,174.74 53.5,345.46 137.9,498.58 223.2,405.52 676.3,1257.47 850.9,1798.81 71.7,222.03 304.2,2182.99 304.2,2182.99 0,0 614.4,-617.59 633,-673.45 14.3,-42.91 6.7,-778 2.3,-1116.52 -1.2,-94.48 71.5,-173.45 165.8,-180.18 l 382.7,-27.35 c 131.7,-9.4 247.5,86.55 262.6,217.76 38.8,336.84 86.2,961.93 -31.4,1366.96" /></g><path
         id="path272"
         style="fill:#dbd2d2;fill-opacity:1;fill-rule:nonzero;stroke:none"
         d="m 15795.7,9593.95 c 92.5,67.36 203.1,106.87 317.5,112.13 19.2,0.89 19.3,30.9 0,30 -119.4,-5.49 -236,-45.8 -332.7,-116.23 -15.4,-11.25 -0.5,-37.29 15.2,-25.9 v 0" /><path
         id="path274"
         style="fill:#dbd2d2;fill-opacity:1;fill-rule:nonzero;stroke:none"
         d="m 15803.6,9521.32 c 82.9,13.58 169.5,2.77 246.5,-30.89 17.5,-7.66 32.8,18.18 15.2,25.91 -85.1,37.2 -178,48.93 -269.6,33.91 -19,-3.12 -11,-32.03 7.9,-28.93 v 0" /><path
         id="path276"
         style="fill:#dbd2d2;fill-opacity:1;fill-rule:nonzero;stroke:none"
         d="m 15085.6,10274 v 1212.8 c 0,0 336.6,20.8 334.8,-207.5 -32.4,-180.7 -334.8,-1005.3 -334.8,-1005.3" /><path
         id="path278"
         style="fill:#4d5cb0;fill-opacity:1;fill-rule:nonzero;stroke:none"
         d="m 16098.8,10580.7 -124.7,-114 c -31.9,-29.8 -81.9,-28.1 -111.7,3.8 l -230,246.2 c -29.8,31.8 -28.1,81.8 3.8,111.6 l 134.8,134 327.8,-381.6" /><g
         transform="scale(1.0028)"
         id="g280"><path
           id="path282"
           style="fill:#d84848;fill-opacity:1;fill-rule:nonzero;stroke:none"
           d="m 16300,10224.6 -98.3,-72.9 c -23.1,-16.1 -54.8,-10.4 -70.8,12.7 l -123.8,178.1 c -16,23.1 -10.3,54.8 12.7,70.8 l 98.3,73 181.9,-261.7" /></g><g
         transform="scale(1.01534)"
         id="g284"><path
           id="path286"
           style="fill:#ffffff;fill-opacity:1;fill-rule:nonzero;stroke:none"
           d="m 15545.2,7957.89 c -80.5,-165.75 -47,-362.09 -76.6,-543.95 -4.1,-24.9 -9.4,-50.15 -6,-75.14 3.5,-24.99 17.8,-50.3 41.5,-58.84 43.6,-15.69 83.8,30.23 103.9,71.95 33.1,68.2 54.6,141.99 63.3,217.26 16.6,-155.65 -37.5,-312.99 -16.7,-468.16 5,-38.06 24.4,-83.99 62.8,-84.45 15.8,-0.2 30.5,8.01 43.1,17.47 30,22.56 53.5,53.83 66.7,88.99 57,-39.49 148.3,-9.23 170.5,56.51 28.2,-18.21 64.2,4.73 89.7,26.61 13.1,11.21 26.1,22.41 39.2,33.63 44.5,38.3 90.1,77.8 118,129.51 55.4,102.5 30.5,227.97 4.1,341.46 -17.7,75.87 -35.4,151.74 -53,227.62 -13.2,56.89 -26.7,114.47 -53.8,166.24 -27,51.75 -69.5,97.91 -124.8,116.87 -91.3,31.31 -209.2,104.22 -291,52.87 -57.6,-36.21 -180.9,-316.45 -180.9,-316.45" /></g><path
         id="path288"
         style="fill:#dbd2d2;fill-opacity:1;fill-rule:nonzero;stroke:none"
         d="m 16139.8,7587.24 c 6.3,-112.37 -24.5,-223.42 -73.9,-323.59 -4.7,-9.69 -14.3,-22.33 -8.5,-33.31 9,-17.08 34.9,-1.94 25.9,15.14 0,-11.14 0.5,-14.79 1.6,-10.92 0.1,0.23 0.1,0.44 0.2,0.65 0.6,-1.3 -1.9,-4.12 -0.3,-0.97 1.2,2.28 2.3,4.63 3.4,6.93 3.9,7.78 7.7,15.56 11.4,23.41 12.1,25.67 23,51.93 32.4,78.7 27.5,78.01 42.4,161.13 37.8,243.96 -1,19.2 -31.1,19.31 -30,0 v 0" /><g
         transform="scale(1.00506)"
         id="g290"><path
           id="path292"
           style="fill:#dbd2d2;fill-opacity:1;fill-rule:nonzero;stroke:none"
           d="m 16267.1,7485.63 c -18.1,-81.16 -64.2,-148.09 -109.7,-216.1 -10.7,-16.02 15.1,-30.97 25.8,-15.08 46.9,70.13 94,139.59 112.6,223.24 4.2,18.72 -24.6,26.71 -28.7,7.94 v 0" /></g><g
         transform="scale(1.00582)"
         id="g294"><path
           id="path296"
           style="fill:#dbd2d2;fill-opacity:1;fill-rule:nonzero;stroke:none"
           d="m 15889,8191.68 c 63.8,-18.34 130.4,-23.39 196.5,-24.28 66.2,-0.9 132.6,5.07 196.1,23.9 18.4,5.45 10.6,34.24 -7.8,28.76 -61.2,-18.12 -124.6,-23.69 -188.3,-22.84 -63.6,0.86 -127.2,5.58 -188.6,23.22 -18.4,5.31 -26.4,-23.45 -7.9,-28.76 v 0" /></g><g
         transform="scale(1.00626)"
         id="g298"><path
           id="path300"
           style="fill:#303b49;fill-opacity:1;fill-rule:nonzero;stroke:none"
           d="m 15985.2,7893.35 c 92.3,-15.27 186.3,-10.62 275.9,16.86 22.4,6.84 38.9,31.56 31.3,55.01 -7.3,22.51 -31.1,38.58 -55,31.23 -19.2,-5.89 -38.7,-10.85 -58.4,-14.65 -6.1,-1.17 -12.2,-2.23 -18.3,-3.19 -1.5,-0.23 -14.3,-1.91 -6.5,-0.97 -10,-1.19 -20,-2.16 -30,-2.82 -20.1,-1.35 -40.2,-1.59 -60.3,-0.72 -10.1,0.45 -20.1,1.16 -30,2.15 -4.7,0.46 -9.3,0.96 -13.8,1.56 7.4,-0.96 -9.6,1.54 -11.2,1.79 -22.9,3.8 -49.2,-6.01 -54.9,-31.24 -5,-21.56 6.5,-50.93 31.2,-55.01 v 0" /></g><path
         id="path302"
         style="fill:#dbd2d2;fill-opacity:1;fill-rule:nonzero;stroke:none"
         d="m 12554.5,10594.3 c 0,0 251.1,881.7 314.5,1160.9 -73.4,107.8 -362.2,-25.4 -362.1,-91.9 0.5,-290.5 47.6,-1069 47.6,-1069" /><path
         id="path304"
         style="fill:#dbd2d2;fill-opacity:1;fill-rule:nonzero;stroke:none"
         d="m 11563.9,11273.1 c 3.7,-146 -50.2,-284.4 -102.7,-418.2 9.8,-1.3 19.6,-2.6 29.5,-3.9 0.1,5.3 0.3,10.7 0.4,16.1 0.5,19.3 -29.5,19.3 -30,0 -0.1,-5.4 -0.3,-10.8 -0.4,-16.1 -0.5,-18.1 23.6,-18.9 29.4,-4 53.5,136.3 107.5,277.3 103.8,426.1 -0.5,19.3 -30.5,19.3 -30,0 v 0" /><path
         id="path306"
         style="fill:#dbd2d2;fill-opacity:1;fill-rule:nonzero;stroke:none"
         d="m 11607.3,11275.3 c 31.1,-116.8 48.3,-236.7 51.1,-357.5 0.4,-19.3 30.4,-19.3 30,0 -2.8,123.4 -20.4,246.3 -52.2,365.5 -5,18.6 -33.9,10.7 -28.9,-8 v 0" /><path
         id="path308"
         style="fill:#d84848;fill-opacity:1;fill-rule:nonzero;stroke:none"
         d="m 11354.9,11561.2 -94.3,-78.6 c -22.2,-17.3 -54.2,-13.4 -71.6,8.8 l -134,171.4 c -17.3,22.2 -13.4,54.2 8.8,71.6 l 94.3,78.5 196.8,-251.7" /><path
         id="path310"
         style="fill:#ffffff;fill-opacity:1;fill-rule:nonzero;stroke:none"
         d="m 10768.5,12237.4 c -43.2,182.1 -195.7,314.9 -289.3,476.9 -12.8,22.2 -24.8,45.5 -43.6,62.9 -18.8,17.5 -46.2,28.2 -70.4,19.6 -44.4,-15.6 -46.4,-77.5 -35.5,-123.3 17.9,-74.8 48.4,-146.6 89.9,-211.5 -113.1,111.8 -171.7,270.2 -287.6,378.9 -28.5,26.7 -73.2,50.3 -103.7,26 -12.5,-10 -18.8,-25.8 -22.6,-41.3 -9.14,-37.1 -7.48,-76.7 4.7,-112.9 -70.2,-5.6 -122.58,-88 -97.79,-154 -33.88,-3.8 -47.46,-44.9 -53.43,-78.5 -3.05,-17.2 -6.1,-34.4 -9.16,-51.6 -10.44,-58.7 -20.89,-119.1 -9.66,-177.7 22.27,-116.2 122.53,-198.8 216.24,-271.1 62.6,-48.3 125.2,-96.6 187.8,-144.9 46.9,-36.2 94.5,-72.9 149.1,-96.2 54.5,-23.3 117.6,-32.3 173.2,-11.7 91.9,34 231.5,52.5 262.8,145.4 22,65.5 -61,365 -61,365" /><path
         id="path312"
         style="fill:#dbd2d2;fill-opacity:1;fill-rule:nonzero;stroke:none"
         d="m 10499.6,11725.4 c 112.3,76.5 213.7,168.2 300.6,272.7 12.2,14.7 -8.9,36.1 -21.2,21.2 -85.3,-102.5 -184.3,-192.9 -294.5,-268 -15.9,-10.8 -0.9,-36.8 15.1,-25.9 v 0" /><path
         id="path314"
         style="fill:#dbd2d2;fill-opacity:1;fill-rule:nonzero;stroke:none"
         d="m 10424.1,12424.8 c -15.1,-103.4 -6.6,-208.8 26.2,-308 6,-18.3 35,-10.5 28.9,7.9 -31,93.9 -40.5,194.2 -26.2,292.1 2.8,18.9 -26.1,27.1 -28.9,8 v 0" /><path
         id="path316"
         style="fill:#dbd2d2;fill-opacity:1;fill-rule:nonzero;stroke:none"
         d="m 9957.77,12526.3 c 15.69,-1.9 30.5,-10.8 40.2,-23.1 10.83,-13.8 12.93,-30.1 12.93,-47.1 0.1,-20.6 -0.6,-41.2 -0.2,-61.9 0.3,-17.2 -1.7,-38.2 7.2,-53.8 8.9,-15.4 21.7,-29.5 32.7,-43.4 13.9,-17.4 28,-36.6 45.6,-50.5 15,-11.8 36.3,9.3 21.2,21.2 -18.4,14.5 -33,34.6 -47.4,52.8 -6.7,8.6 -13.4,17.2 -19.8,26 -6.4,8.7 -8.5,14.2 -8.9,25.8 -0.9,22.7 -1,45.5 -0.6,68.3 0.3,19.4 1,39.4 -6.1,57.8 -12.7,32.7 -42.44,53.9 -76.83,57.9 -19.14,2.2 -18.98,-27.8 0,-30 v 0" /><path
         id="path318"
         style="fill:#dbd2d2;fill-opacity:1;fill-rule:nonzero;stroke:none"
         d="m 10043.5,12677.9 c 43.2,-17.3 53.6,-69 57.2,-110.2 1.7,-19.2 1.8,-38.5 3.8,-57.6 2,-20.4 8.7,-34 23.7,-48.8 25.5,-25.4 58.2,-43 89.3,-60.4 16.9,-9.4 32,16.5 15.2,25.9 -27.5,15.4 -56.4,30.6 -79.6,52.1 -5,4.6 -9.8,9.5 -13.7,15 -0.8,1.2 -3.7,6.7 -2.1,2.7 -0.5,1.2 -0.9,2.5 -1.2,3.8 -1.6,7.1 -1.8,10.4 -2.4,18.7 -3,44.8 -3.1,90.8 -22.8,132.2 -12.3,26 -32.9,44.9 -59.4,55.6 -17.9,7.2 -25.7,-21.8 -8,-29 v 0" /><path
         id="path320"
         style="fill:#dbd2d2;fill-opacity:1;fill-rule:nonzero;stroke:none"
         d="m 10255.8,12453.1 c -21.8,-43.4 -43.6,-86.7 -65.5,-130.1 -3.6,-7.2 -1.9,-16.2 5.4,-20.5 6.7,-3.9 16.9,-1.9 20.5,5.4 21.9,43.3 43.7,86.7 65.5,130 3.7,7.3 2,16.3 -5.3,20.5 -6.7,3.9 -16.9,1.9 -20.6,-5.3 v 0" /><path
         id="path322"
         style="fill:#303b49;fill-opacity:1;fill-rule:nonzero;stroke:none"
         d="m 14644.2,8006.43 c -0.8,0 -1.6,0.06 -2.5,0.19 -8.1,1.35 -13.7,9.07 -12.3,17.25 44.8,271.57 -60.6,368.38 -172.1,470.87 -114.9,105.66 -233.8,214.92 -211.3,508.43 0.6,8.27 7.9,14.44 16.1,13.81 8.2,-0.63 14.4,-7.83 13.8,-16.1 -21.3,-278.99 92.1,-383.24 201.7,-484.06 112.5,-103.37 228.8,-210.27 181.4,-497.84 -1.2,-7.34 -7.6,-12.55 -14.8,-12.55" /><path
         id="path324"
         style="fill:#dbd2d2;fill-opacity:1;fill-rule:nonzero;stroke:none"
         d="m 14498.7,6939.9 -388.4,119.09 c -33.9,10.4 -52.4,46.93 -40.6,80.41 l 335.5,957.39 c 11.1,31.66 45.2,48.9 77.3,39.07 l 388.5,-119.13 c 33.9,-10.4 52.3,-46.93 40.6,-80.41 L 14576,6978.9 c -11.1,-31.6 -45.2,-48.9 -77.3,-39" /><path
         id="path326"
         style="fill:#baaeae;fill-opacity:1;fill-rule:nonzero;stroke:none"
         d="m 14216.8,7076.95 c -1.6,0 -3.2,0.25 -4.8,0.78 -7.8,2.64 -12,11.15 -9.4,19 l 321.5,956.57 c 2.6,7.83 11.1,12.06 19,9.43 7.8,-2.63 12.1,-11.14 9.4,-18.99 L 14231,7087.18 c -2.1,-6.27 -7.9,-10.23 -14.2,-10.23" /><path
         id="path328"
         style="fill:#303b49;fill-opacity:1;fill-rule:nonzero;stroke:none"
         d="m 14763.4,7723.92 -201.7,60.2 36.3,121.57 201.7,-60.2 -36.3,-121.57" /><path
         id="path330"
         style="fill:#4d5cb0;fill-opacity:1;fill-rule:nonzero;stroke:none"
         d="m 14862.7,8833.12 c -928.8,0 -1626.6,150.17 -2055.1,279.45 -239,72.09 -422.2,145.34 -548.8,202.4 -134.4,60.59 -10.5,336.41 74.1,296.38 115.7,-54.75 308.5,-136.07 574.9,-215.65 425.9,-127.18 1132.7,-275.87 2080.3,-261.64 l 4.5,-299.97 c -43.8,-0.65 -87.1,-0.97 -129.9,-0.97" /><path
         id="path332"
         style="fill:#303b49;fill-opacity:1;fill-rule:nonzero;stroke:none"
         d="m 13325,10848.4 c -1.4,-54.6 -46.9,-97.8 -101.5,-96.3 -54.6,1.4 -97.7,46.8 -96.3,101.4 1.4,54.7 46.9,97.8 101.5,96.4 54.6,-1.5 97.7,-46.9 96.3,-101.5" /><path
         id="path334"
         style="fill:#303b49;fill-opacity:1;fill-rule:nonzero;stroke:none"
         d="m 13271.4,10513.1 c -1.5,-54.7 -46.9,-97.8 -101.5,-96.3 -54.7,1.4 -97.8,46.8 -96.4,101.4 1.5,54.7 46.9,97.8 101.5,96.4 54.7,-1.5 97.8,-46.9 96.4,-101.5" /><path
         id="path336"
         style="fill:#dbd2d2;fill-opacity:1;fill-rule:nonzero;stroke:none"
         d="m 14313.9,9653.25 c 46.2,-6.7 92.1,5.24 129.2,33.68 37.1,28.45 60.6,69.69 66.1,116.13 L 14628,10805 c 11.1,94.1 -56.3,179.7 -150.4,190.8 l -1290,164.8 c -84.1,10 -164.2,-44.3 -186.1,-126.2 l -252.6,-944.7 c -12.7,-47.4 -4.5,-97.99 22.4,-138.92 27,-40.93 70.3,-68.45 118.8,-75.52 z m 25.2,-31.84 c -9.8,0 -19.7,0.72 -29.6,2.16 l -0.2,0.02 -1423.7,222.01 c -56.8,8.28 -107.7,40.61 -139.3,88.68 -31.7,48.08 -41.3,107.52 -26.4,163.12 l 252.6,944.7 c 25.8,96.3 119.8,160 218.8,148.3 l 1289.9,-164.8 c 110.4,-13.1 189.7,-113.7 176.6,-224.2 L 14539,9799.53 c -6.5,-54.54 -34,-102.99 -77.6,-136.41 -35.7,-27.33 -78.3,-41.71 -122.3,-41.71" /><path
         id="path338"
         style="fill:#303b49;fill-opacity:1;fill-rule:nonzero;stroke:none"
         d="m 14592.1,10028.6 -76.8,8.2 63.7,595.2 76.8,-8.2 -63.7,-595.2" /><path
         id="path340"
         style="fill:#303b49;fill-opacity:1;fill-rule:nonzero;stroke:none"
         d="m 14262.9,10465.6 -827,103.4 48.7,361.7 827,-103.4 -48.7,-361.7" /><path
         id="path342"
         style="fill:#303b49;fill-opacity:1;fill-rule:nonzero;stroke:none"
         d="m 14323.1,10109.2 c 0,-116.88 -94.8,-211.65 -211.7,-211.65 -116.9,0 -211.7,94.77 -211.7,211.65 0,116.9 94.8,211.7 211.7,211.7 116.9,0 211.7,-94.8 211.7,-211.7" /><path
         id="path344"
         style="fill:#dbd2d2;fill-opacity:1;fill-rule:nonzero;stroke:none"
         d="m 13350.9,9932.22 c -0.8,0 -1.7,0.07 -2.5,0.21 -8.2,1.38 -13.7,9.12 -12.3,17.29 l 88.8,526.48 c 1.4,8.2 9.1,13.7 17.3,12.3 8.2,-1.3 13.7,-9.1 12.3,-17.2 l -88.8,-526.57 c -1.2,-7.33 -7.6,-12.51 -14.8,-12.51" /><path
         id="path346"
         style="fill:#dbd2d2;fill-opacity:1;fill-rule:nonzero;stroke:none"
         d="m 13451.7,9916.9 c -0.9,0 -1.7,0.07 -2.5,0.21 -8.2,1.38 -13.7,9.12 -12.3,17.29 l 88.8,526.5 c 1.4,8.2 9.1,13.7 17.3,12.3 8.1,-1.4 13.6,-9.1 12.3,-17.3 l -88.9,-526.49 c -1.2,-7.33 -7.5,-12.51 -14.7,-12.51" /><path
         id="path348"
         style="fill:#dbd2d2;fill-opacity:1;fill-rule:nonzero;stroke:none"
         d="m 13552.4,9902.66 c -0.8,0 -1.6,0.06 -2.5,0.21 -8.2,1.37 -13.7,9.11 -12.3,17.28 l 88.8,526.55 c 1.4,8.1 9.1,13.7 17.3,12.3 8.2,-1.4 13.7,-9.1 12.3,-17.3 l -88.8,-526.54 c -1.2,-7.32 -7.6,-12.5 -14.8,-12.5" /><path
         id="path350"
         style="fill:#dbd2d2;fill-opacity:1;fill-rule:nonzero;stroke:none"
         d="m 13653.2,9882.55 c -0.8,0 -1.7,0.07 -2.5,0.21 -8.2,1.38 -13.7,9.12 -12.3,17.29 l 88.8,526.55 c 1.4,8.1 9.1,13.7 17.3,12.3 8.1,-1.4 13.6,-9.1 12.3,-17.3 l -88.9,-526.54 c -1.2,-7.33 -7.5,-12.51 -14.7,-12.51" /><path
         id="path352"
         style="fill:#dbd2d2;fill-opacity:1;fill-rule:nonzero;stroke:none"
         d="m 13755,9865.1 c -0.9,0 -1.7,0.07 -2.5,0.21 -8.2,1.37 -13.7,9.11 -12.3,17.28 l 88.8,526.51 c 1.4,8.2 9.1,13.7 17.3,12.3 8.1,-1.4 13.6,-9.1 12.3,-17.3 l -88.9,-526.5 c -1.2,-7.32 -7.5,-12.5 -14.7,-12.5" /><path
         id="path354"
         style="fill:#dbd2d2;fill-opacity:1;fill-rule:nonzero;stroke:none"
         d="m 15542.2,9089.38 c -16.2,115.99 -50.9,228.91 -93.6,337.71 -15.7,40.28 -32.6,80.15 -50,119.73 -0.7,1.61 -4.1,12.04 -5,13.62 l -79.9,-577.53 c 1.9,-34.84 1.5,-69.77 -2,-104.49 -4.6,-27.78 -11.5,-55.1 -21.4,-81.46 -6.5,-13.21 -13.9,-25.91 -22.2,-38.04 -6.8,-7.74 -14.1,-15.06 -21.8,-21.9 -7.9,-5.31 -16.2,-10.1 -24.7,-14.4 -10.4,-3.6 -21.1,-6.49 -32,-8.68 -15.2,-1.15 -30.6,-1.12 -45.8,0.06 4.7,-0.85 9.4,-1.83 14.2,-2.48 -10.6,1.43 -21.3,2.85 -31.9,4.29 5.9,-0.78 11.8,-1.35 17.7,-1.81 -25.3,4.52 -49.9,11.66 -73.8,20.91 -31.6,14.82 -61.4,32.95 -89.6,53.46 -41.5,33.53 -78.8,71.88 -112.2,113.4 -31.6,42.74 -58.4,88.13 -84.1,134.72 -45.9,83.18 -91.8,166.41 -137,249.92 -90.5,166.81 -178.7,334.87 -260.8,505.97 -44.3,92.35 -86.7,185.62 -126.8,279.82 -8.4,20 -16.7,39.9 -24.8,59.9 -3.7,15.6 -10.9,29.2 -21.5,40.8 -8.4,13 -19.7,23.3 -33.6,30.9 -25.8,15 -63.7,21.4 -92.5,12.1 -29,-9.4 -57.1,-27.4 -71.7,-55.2 -14.1,-26.6 -24,-63.2 -12.1,-92.4 122.2,-300.73 267.7,-590.54 421.9,-875.95 37.6,-69.58 75.6,-138.92 113.7,-208.19 28.9,-52.49 56.4,-106.07 89.1,-156.35 48.8,-74.92 106.7,-146.35 175.7,-203.59 67,-55.56 138.5,-100 221.4,-127.8 72.1,-24.17 147.4,-28.18 221.9,-15.18 68.2,11.88 134.7,49.51 182.6,98.97 54.2,56.01 90.6,129.14 107.9,204.8 23.3,101.35 19,202.31 4.7,304.37" /><path
         id="path356"
         style="fill:#dbd2d2;fill-opacity:1;fill-rule:nonzero;stroke:none"
         d="m 13342.5,9399.43 -744.1,197.36 c -29.8,7.89 -60.3,-9.84 -68.2,-39.62 l -174.7,-658.55 c -7.9,-29.77 9.9,-60.31 39.6,-68.21 l 31.6,-8.38 v 0 l 395.6,-104.91 316.9,-84.07 c 29.8,-7.9 60.3,9.84 68.2,39.61 l 174.7,658.56 c 7.9,29.77 -9.8,60.31 -39.6,68.21" /><path
         id="path358"
         style="fill:#303b49;fill-opacity:1;fill-rule:nonzero;stroke:none"
         d="m 12629.4,9152.36 c 0,-33.47 -27.1,-60.61 -60.6,-60.61 -33.4,0 -60.6,27.14 -60.6,60.61 0,33.48 27.2,60.61 60.6,60.61 33.5,0 60.6,-27.13 60.6,-60.61" /><path
         id="path360"
         style="fill:#303b49;fill-opacity:1;fill-rule:nonzero;stroke:none"
         d="m 12591.4,8974.95 c 0,-33.48 -27.2,-60.61 -60.6,-60.61 -33.5,0 -60.6,27.13 -60.6,60.61 0,33.47 27.1,60.61 60.6,60.61 33.4,0 60.6,-27.14 60.6,-60.61" /><path
         id="path362"
         style="fill:#baaeae;fill-opacity:1;fill-rule:nonzero;stroke:none"
         d="m 12731.3,8836.7 c -1.1,0 -2.3,0.14 -3.5,0.41 -8,1.93 -13,10.02 -11.1,18.08 l 144.4,605.13 c 1.9,8.06 10,12.99 18,11.11 8.1,-1.92 13.1,-10.01 11.2,-18.07 l -144.4,-605.14 c -1.7,-6.88 -7.8,-11.52 -14.6,-11.52" /><path
         id="path364"
         style="fill:#baaeae;fill-opacity:1;fill-rule:nonzero;stroke:none"
         d="m 13109.1,8663.86 c -1.2,0 -2.4,0.15 -3.7,0.46 -8,2.04 -12.9,10.2 -10.8,18.23 l 174.5,687.74 c 2,8.03 10.2,12.88 18.2,10.85 8,-2.04 12.9,-10.2 10.9,-18.23 l -174.5,-687.74 c -1.8,-6.79 -7.9,-11.31 -14.6,-11.31" /><path
         id="path366"
         style="fill:#303b49;fill-opacity:1;fill-rule:nonzero;stroke:none"
         d="m 13156.4,9293.17 c 0,-60.14 -48.8,-108.9 -108.9,-108.9 -60.2,0 -108.9,48.76 -108.9,108.9 0,60.15 48.7,108.9 108.9,108.9 60.1,0 108.9,-48.75 108.9,-108.9" /><path
         id="path368"
         style="fill:#dbd2d2;fill-opacity:1;fill-rule:nonzero;stroke:none"
         d="m 13102.9,9293.17 c 0,-30.61 -24.8,-55.43 -55.4,-55.43 -30.6,0 -55.5,24.82 -55.5,55.43 0,30.61 24.9,55.43 55.5,55.43 30.6,0 55.4,-24.82 55.4,-55.43" /><path
         id="path370"
         style="fill:#303b49;fill-opacity:1;fill-rule:nonzero;stroke:none"
         d="m 13303.6,9061.49 v 0 c -14.8,3.62 -23.8,18.5 -20.2,33.24 l 26.2,106.95 c 3.7,14.75 18.5,23.77 33.3,20.16 v 0 c 14.7,-3.61 23.8,-18.5 20.1,-33.24 l -26.2,-106.95 c -3.6,-14.75 -18.5,-23.77 -33.2,-20.16" /><path
         id="path372"
         style="fill:#303b49;fill-opacity:1;fill-rule:nonzero;stroke:none"
         d="m 13221.1,8767.49 v 0 c -14.7,3.61 -23.7,18.5 -20.1,33.24 l 26.2,106.96 c 3.6,14.74 18.5,23.77 33.2,20.15 v 0 c 14.8,-3.61 23.8,-18.49 20.2,-33.24 l -26.2,-106.95 c -3.6,-14.75 -18.5,-23.77 -33.3,-20.16" /><path
         id="path374"
         style="fill:#dbd2d2;fill-opacity:1;fill-rule:nonzero;stroke:none"
         d="m 11208,7343.23 c -87.5,0 -173,-43.33 -242.7,-123.71 -76.7,-88.43 -125.1,-210.72 -136.3,-344.32 -11.1,-133.7 16.4,-262.3 77.4,-362.2 60.2,-98.4 145.7,-157 240.9,-164.9 95.1,-8 189.2,35.7 264.7,122.8 76.8,88.4 125.2,210.7 136.3,344.4 22.8,274.06 -119.9,510.49 -318.2,527.01 -7.4,0.62 -14.7,0.92 -22.1,0.92 z m -38.5,-1026.03 c -8.3,0 -16.5,0.3 -24.7,1 -105,8.7 -198.7,72.4 -264,179.2 -64.3,105.3 -93.3,240.3 -81.7,380.3 11.7,139.89 62.7,268.28 143.5,361.49 82.1,94.52 185,141.72 290,133.03 214.8,-17.9 369.8,-268.87 345.6,-559.42 -11.7,-140 -62.6,-268.4 -143.5,-361.6 -75.6,-87.1 -168.9,-134 -265.2,-134" /><path
         id="path376"
         style="fill:#dbd2d2;fill-opacity:1;fill-rule:nonzero;stroke:none"
         d="m 13153.6,6531.2 c -87.5,0 -173,-43.3 -242.7,-123.7 -76.7,-88.4 -125.1,-210.7 -136.3,-344.3 -22.8,-274.1 120,-510.6 318.3,-527.1 95.1,-7.9 189.2,35.7 264.7,122.8 76.8,88.4 125.2,210.7 136.3,344.4 22.8,274.1 -119.9,510.5 -318.2,527 -7.4,0.6 -14.7,0.9 -22.1,0.9 z m -38.6,-1026 c -8.2,0 -16.4,0.3 -24.6,1 -214.8,17.9 -369.9,268.9 -345.7,559.5 11.7,139.9 62.7,268.3 143.5,361.5 82,94.5 184.9,141.7 290,133 214.8,-17.9 369.8,-268.8 345.6,-559.4 -11.7,-140 -62.6,-268.3 -143.5,-361.6 -75.6,-87 -168.9,-134 -265.3,-134" /><path
         id="path378"
         style="fill:#dbd2d2;fill-opacity:1;fill-rule:nonzero;stroke:none"
         d="m 10401.2,4575.7 c 58.8,-19.3 115.6,-44.2 169.5,-74.6 26.2,-14.8 51.8,-30.8 76.5,-48 13.1,-9.2 26,-18.6 38.5,-28.3 5.7,-4.4 11.3,-8.9 16.9,-13.5 3.3,-2.7 6.6,-5.4 9.9,-8.2 1.1,-0.9 2.2,-1.9 3.3,-2.8 3.6,-4 4.3,-3.8 2,0.6 2.5,4.3 5,8.7 7.5,13 -0.5,-0.3 -1,-0.5 -1.5,-0.8 5.1,0 10.1,0 15.2,0 0.9,-1.1 1.9,-2.2 2.8,-3.2 -0.7,-6.1 -1.5,-12.2 -2.3,-18.2 0.3,0.3 0.6,0.6 0.9,0.8 14,13.4 -7.2,34.6 -21.2,21.3 -0.3,-0.3 -0.6,-0.6 -0.9,-0.9 -4.7,-4.4 -5.9,-12.7 -2.4,-18.2 9.4,-14.6 33.3,-10.6 32.2,8.8 -0.9,15.9 -23.2,28.3 -34.4,37.1 -30.2,24.1 -61.7,46.4 -94.5,66.7 -65.8,40.7 -136.5,73.2 -210,97.3 -18.4,6.1 -26.3,-22.9 -8,-28.9 v 0" /><path
         id="path380"
         style="fill:#dbd2d2;fill-opacity:1;fill-rule:nonzero;stroke:none"
         d="m 12774.8,3568.7 c 160.8,48.7 333.5,55 497.4,17.9 22.7,-5.2 45.2,-11.1 67.5,-17.9 10.7,-3.3 21.5,-6.7 32.1,-10.4 12,-4.1 20.8,-8.4 33,-2.5 17.3,8.5 2.1,34.4 -15.2,25.9 3.4,1.7 -8.9,5.2 -9.8,5.5 -4.3,1.5 -8.5,2.9 -12.8,4.3 -10.7,3.5 -21.5,6.8 -32.3,10 -19.5,5.6 -39.1,10.6 -58.9,15 -40.9,9.1 -82.4,15.5 -124.1,19.5 -82.1,7.8 -165,5.2 -246.6,-7.1 -46.8,-7 -93,-17.6 -138.3,-31.3 -18.4,-5.6 -10.5,-34.6 8,-28.9 v 0" /><path
         id="path382"
         style="fill:#dbd2d2;fill-opacity:1;fill-rule:nonzero;stroke:none"
         d="m 12875.1,3680.8 c 77.1,24.1 155.7,39.9 236.7,41.6 81.3,1.7 162.6,-7 243.6,-12.6 19.3,-1.3 19.2,28.7 0,30 -82.2,5.7 -164.7,14.5 -247.1,12.5 -82.4,-2 -162.7,-18 -241.2,-42.6 -18.3,-5.8 -10.5,-34.7 8,-28.9 v 0" /><path
         id="path384"
         style="fill:#dbd2d2;fill-opacity:1;fill-rule:nonzero;stroke:none"
         d="m 10482.8,4643 c 86.8,-27 173.7,-54 260.5,-81 18.5,-5.7 26.4,23.2 8,29 -86.9,27 -173.7,54 -260.5,81 -18.5,5.7 -26.4,-23.2 -8,-29 v 0" /><path
         id="path386"
         style="fill:#dbd2d2;fill-opacity:1;fill-rule:nonzero;stroke:none"
         d="m 12182.8,8008.48 c 181.6,-125.67 354.6,-265.01 508.5,-423.6 43.1,-44.38 84.6,-90.31 124.1,-137.87 12.4,-14.85 33.5,6.47 21.3,21.22 -142.5,171.29 -309.5,320.96 -486.5,455.73 -49.9,37.98 -100.7,74.73 -152.3,110.41 -15.9,11.02 -30.9,-14.97 -15.1,-25.89 v 0" /><path
         id="path388"
         style="fill:#dbd2d2;fill-opacity:1;fill-rule:nonzero;stroke:none"
         d="m 12841.2,7447.58 c 134.6,72.38 294.1,105.79 446.4,103.45 40,-0.63 79.9,-4.02 119.2,-11.6 18.8,-3.63 26.9,25.28 8,28.93 -74.4,14.35 -150.8,15.64 -226.1,8.78 -81.2,-7.4 -161.9,-23.83 -239.1,-50.25 -42.5,-14.53 -84,-32.14 -123.5,-53.4 -17,-9.15 -1.9,-35.06 15.1,-25.91 v 0" /><path
         id="path390"
         style="fill:#dbd2d2;fill-opacity:1;fill-rule:nonzero;stroke:none"
         d="m 11732.5,6508.2 c 86.6,-77.1 201.6,-118.7 317.6,-113.7 19.2,0.9 19.3,30.9 0,30 -108,-4.6 -215.6,33 -296.4,104.9 -14.4,12.8 -35.7,-8.4 -21.2,-21.2 v 0" /><path
         id="path392"
         style="fill:#dbd2d2;fill-opacity:1;fill-rule:nonzero;stroke:none"
         d="m 10034.9,3468.6 c 0,0 -150.96,-43.4 -313.51,-25.9 84.36,-101 268.6,-135.6 538.81,-16.7 475.8,209.3 976,521.3 1046.7,666.1 29.7,60.7 31.1,150.7 22.8,234.8 -27.5,-64.4 -60.7,-126.2 -97.8,-163.9 -98.9,-100.6 -889.2,-631.3 -1197,-694.4" /><path
         id="path394"
         style="fill:#dbd2d2;fill-opacity:1;fill-rule:nonzero;stroke:none"
         d="m 12887.2,2395.8 c -160.6,-35.6 -282.3,-26.6 -374.4,10.3 102.5,-160.5 361.7,-179.4 621.1,-26.8 231.8,136.3 422.3,748.5 511.8,1084.8 36.1,135.6 56.8,274.7 61.9,414.9 l 4.6,126.9 c -115.6,-419.9 -232.3,-775.1 -232.3,-775.1 -70.9,-344 -300.6,-770.4 -592.7,-835" /><path
         id="path396"
         style="fill:#ffffff;fill-opacity:1;fill-rule:nonzero;stroke:none"
         d="m 7276.1,10623.3 c 0,-598.9 489.6,-1084.37 1093.56,-1084.37 603.89,0 1093.48,485.47 1093.48,1084.37 0,598.8 -489.59,1084.3 -1093.48,1084.3 -603.96,0 -1093.56,-485.5 -1093.56,-1084.3" /><path
         id="path398"
         style="fill:#ffffff;fill-opacity:1;fill-rule:nonzero;stroke:none"
         d="m 7941.56,10702.1 c 5.83,0.7 11.62,2.3 17.38,4.6 105.16,43.3 187.57,126.1 232.05,232.9 44.46,106.9 45.68,225.1 3.38,332.9 l -164.6,419.6 c -42.29,107.8 -122.99,192.3 -227.3,237.9 -104.27,45.6 -219.62,46.8 -324.86,3.5 -34.89,-14.4 -51.76,-55 -37.74,-90.8 14.01,-35.7 53.64,-53.1 88.58,-38.7 71.39,29.5 149.77,28.6 220.6,-2.4 70.87,-30.9 125.65,-88.3 154.36,-161.5 l 164.63,-419.6 c 28.71,-73.3 27.91,-153.5 -2.31,-226.2 -30.22,-72.5 -86.17,-128.7 -157.63,-158.1 -34.88,-14.4 -51.79,-55 -37.8,-90.8 11.76,-29.9 41.45,-47 71.26,-43.3" /><path
         id="path400"
         style="fill:#151c28;fill-opacity:1;fill-rule:nonzero;stroke:none"
         d="m 7810.25,10847.1 c 31.6,-269.3 388.8,-446.7 797.9,-396.3 409.07,50.4 715.15,309.5 683.57,578.8 -31.56,269.2 -388.82,446.6 -797.95,396.2 -409.06,-50.4 -715.09,-309.5 -683.52,-578.7" /><path
         id="path402"
         style="fill:#527bef;fill-opacity:1;fill-rule:nonzero;stroke:none"
         d="m 9040.37,11006.5 c 2.52,-21.4 21.42,-36.6 42.27,-34 20.83,2.5 35.67,21.9 33.18,43.3 -2.52,21.3 -21.43,36.6 -42.27,34 -20.83,-2.6 -35.66,-22 -33.18,-43.3" /><path
         id="path404"
         style="fill:#527bef;fill-opacity:1;fill-rule:nonzero;stroke:none"
         d="m 8798.39,10965.6 c 2.48,-21.3 21.4,-36.5 42.23,-34 20.85,2.6 35.69,22 33.18,43.3 -2.49,21.4 -21.44,36.6 -42.24,34.1 -20.85,-2.6 -35.69,-22 -33.17,-43.4" /><path
         id="path406"
         style="fill:#527bef;fill-opacity:1;fill-rule:nonzero;stroke:none"
         d="m 8858.5,11061 c 2.52,-21.3 21.39,-36.5 42.25,-34 20.8,2.6 35.67,22 33.17,43.3 -2.53,21.4 -21.41,36.6 -42.25,34.1 -20.84,-2.6 -35.7,-22 -33.17,-43.4" /><path
         id="path408"
         style="fill:#527bef;fill-opacity:1;fill-rule:nonzero;stroke:none"
         d="m 8953.34,11077.8 c 2.51,-21.3 21.42,-36.5 42.22,-33.9 20.87,2.5 35.71,21.9 33.23,43.3 -2.52,21.3 -21.44,36.5 -42.27,34 -20.82,-2.6 -35.67,-22 -33.18,-43.4" /><path
         id="path410"
         style="fill:#527bef;fill-opacity:1;fill-rule:nonzero;stroke:none"
         d="m 8304.35,10915.8 c 2.48,-21.3 21.38,-36.5 42.21,-34 20.83,2.6 35.68,22 33.18,43.3 -2.49,21.4 -21.41,36.6 -42.24,34 -20.83,-2.5 -35.67,-21.9 -33.15,-43.3" /><path
         id="path412"
         style="fill:#527bef;fill-opacity:1;fill-rule:nonzero;stroke:none"
         d="m 8062.31,10875 c 2.52,-21.4 21.44,-36.6 42.27,-34 20.84,2.6 35.67,21.9 33.14,43.3 -2.5,21.3 -21.38,36.6 -42.22,34 -20.84,-2.6 -35.7,-22 -33.19,-43.3" /><path
         id="path414"
         style="fill:#527bef;fill-opacity:1;fill-rule:nonzero;stroke:none"
         d="m 8122.43,10970.4 c 2.5,-21.4 21.43,-36.6 42.25,-34 20.83,2.5 35.71,21.9 33.17,43.3 -2.52,21.3 -21.41,36.6 -42.22,34 -20.83,-2.5 -35.71,-21.9 -33.2,-43.3" /><path
         id="path416"
         style="fill:#527bef;fill-opacity:1;fill-rule:nonzero;stroke:none"
         d="m 8217.3,10987.2 c 2.5,-21.3 21.42,-36.6 42.25,-34 20.82,2.5 35.69,22 33.16,43.3 -2.49,21.4 -21.41,36.6 -42.23,34 -20.84,-2.5 -35.68,-21.9 -33.18,-43.3" /><path
         id="path418"
         style="fill:#dbd2d2;fill-opacity:1;fill-rule:nonzero;stroke:none"
         d="m 7546.59,9909.3 c 39.32,34.43 72.66,82.93 97.94,143.6 47.08,113.1 60.76,255.6 38.53,401.3 -22.23,145.8 -77.78,277.7 -156.42,371.6 -60.29,72 -128.87,115.3 -198.33,126.6 l -9.76,-28.9 c 63.98,-8.8 128.14,-49 185.1,-117 75.16,-89.7 128.34,-216.4 149.75,-356.8 21.42,-140.4 8.43,-277.2 -36.57,-385.3 -23.43,-56.2 -54.01,-100.92 -89.82,-132.31 l 19.58,-22.79" /><path
         id="path420"
         style="fill:#dbd2d2;fill-opacity:1;fill-rule:nonzero;stroke:none"
         d="m 7917.6,11611.2 c 0.19,0.2 28.03,16.9 101.82,33.6 l -6.64,29.3 c -79.81,-18.1 -109.9,-36.7 -111.15,-37.5 l 15.97,-25.4" /></g></g></svg>